<?xml version="1.0" standalone="no"?>
<!DOCTYPE svg PUBLIC "-//W3C//DTD SVG 20010904//EN"
 "http://www.w3.org/TR/2001/REC-SVG-20010904/DTD/svg10.dtd">
<svg version="1.0" xmlns="http://www.w3.org/2000/svg"
 width="64.000000pt" height="64.000000pt" viewBox="0 0 64.000000 64.000000"
 preserveAspectRatio="xMidYMid meet">

<g transform="translate(0.000000,64.000000) scale(0.100000,-0.100000)"
fill="#6EF3A5" stroke="none">
<path d="M97 622 c-15 -16 -17 -49 -17 -253 l0 -235 68 -67 68 -67 150 0 c119
0 154 3 172 16 22 15 22 17 22 303 0 266 -1 289 -18 304 -16 15 -47 17 -224
17 -186 0 -206 -2 -221 -18z m418 -302 l0 -275 -137 -3 -137 -3 -3 63 -3 63
-57 3 -58 3 0 208 c0 114 3 211 7 215 4 3 93 5 197 4 l191 -3 0 -275z m-315
-215 c0 -14 -1 -25 -3 -25 -2 0 -14 11 -27 25 l-23 25 26 0 c22 0 27 -5 27
-25z"/>
<path d="M270 540 c-27 -27 -25 -66 6 -96 29 -30 67 -27 97 8 22 27 22 49 -4
82 -25 32 -70 35 -99 6z m74 -36 c8 -21 -1 -34 -24 -34 -22 0 -34 15 -26 35 7
20 42 19 50 -1z"/>
<path d="M249 395 c-28 -15 -43 -52 -33 -79 10 -25 33 -19 40 12 9 34 20 42
64 42 44 0 57 -9 61 -40 6 -40 33 -31 37 12 3 32 -1 39 -27 52 -37 20 -107 20
-142 1z"/>
<path d="M185 230 c-15 -24 12 -30 129 -30 91 0 126 4 135 13 6 8 8 17 4 20
-11 11 -261 8 -268 -3z"/>
<path d="M285 130 c-13 -22 10 -30 84 -30 82 0 93 3 84 26 -6 17 -158 20 -168
4z"/>
</g>
</svg>
